<?xml version="1.0" standalone="no"?>
<!DOCTYPE svg PUBLIC "-//W3C//DTD SVG 20010904//EN"
 "http://www.w3.org/TR/2001/REC-SVG-20010904/DTD/svg10.dtd">
<svg version="1.0" xmlns="http://www.w3.org/2000/svg"
 width="500.000000pt" height="500.000000pt" viewBox="0 0 500.000000 500.000000"
 preserveAspectRatio="xMidYMid meet">
<metadata>
Created by potrace 1.14, written by Peter Selinger 2001-2017
</metadata>
<g transform="translate(0.000000,500.000000) scale(0.100000,-0.100000)"
fill="#000000" stroke="none">
<path d="M2317 4684 c-1 -1 -29 -6 -62 -9 -33 -4 -69 -9 -80 -11 -11 -3 -36
-7 -55 -10 -82 -12 -243 -55 -345 -92 -106 -38 -294 -120 -305 -132 -3 -4 -20
-13 -37 -21 -18 -8 -33 -17 -33 -21 0 -5 -4 -8 -10 -8 -11 0 -106 -59 -166
-104 -23 -17 -54 -40 -68 -50 -139 -101 -348 -323 -457 -486 -24 -36 -46 -67
-49 -70 -3 -3 -12 -18 -21 -35 -9 -16 -31 -57 -49 -90 -18 -33 -37 -67 -41
-75 -16 -31 -57 -127 -84 -196 l-27 -72 -45 0 c-104 -2 -203 -86 -221 -186 -3
-17 -5 -256 -5 -531 0 -482 0 -502 20 -546 37 -83 122 -141 208 -141 l43 0 32
-85 c63 -166 227 -459 307 -548 10 -11 36 -43 58 -70 43 -53 187 -200 245
-250 70 -60 140 -115 145 -115 3 0 15 -9 27 -20 12 -11 34 -26 50 -32 15 -7
28 -16 28 -20 0 -5 6 -8 14 -8 8 0 16 -4 18 -9 2 -7 173 -104 188 -107 3 0 37
-15 75 -33 176 -81 469 -160 663 -178 145 -14 445 -7 538 11 12 2 37 7 55 10
66 11 95 17 153 32 73 19 214 62 241 74 11 4 70 30 130 56 61 26 117 52 125
59 8 6 26 16 40 23 14 7 34 18 45 24 220 140 326 224 474 376 82 84 236 279
263 331 7 14 22 40 34 56 27 39 136 263 165 340 29 77 32 81 71 83 107 5 192
70 220 168 12 44 18 1029 7 1054 -4 8 -13 30 -19 47 -26 70 -122 133 -205 135
l-43 1 -23 61 c-21 59 -155 341 -171 361 -5 6 -34 49 -66 96 -64 97 -87 127
-152 202 -58 68 -226 233 -270 266 -19 14 -44 34 -55 44 -42 38 -219 151 -317
202 -191 99 -441 188 -593 210 -22 3 -47 8 -54 11 -8 3 -35 7 -60 10 -26 2
-62 7 -81 11 -33 5 -408 12 -413 7z m432 -211 c124 -56 275 -179 358 -290 15
-21 31 -40 34 -43 13 -10 109 -170 153 -254 42 -79 55 -116 41 -116 -3 0 -45
-9 -93 -19 -48 -11 -107 -22 -132 -26 -25 -3 -52 -8 -60 -10 -8 -2 -40 -7 -70
-11 -30 -3 -66 -7 -80 -9 -52 -6 -178 -16 -247 -20 l-73 -3 0 428 0 428 58
-15 c31 -8 81 -26 111 -40z m-331 -375 l-3 -423 -45 1 c-67 2 -242 14 -266 18
-11 2 -45 7 -75 10 -30 3 -65 8 -79 11 -13 2 -42 7 -65 10 -22 4 -56 10 -75
15 -19 5 -48 12 -65 15 -16 3 -45 9 -63 13 l-33 7 54 105 c44 86 137 240 157
260 3 3 17 21 31 40 72 96 194 203 304 266 55 32 167 73 203 74 l22 0 -2 -422z
m-518 334 c0 -4 -19 -28 -42 -53 -136 -147 -229 -285 -313 -461 -25 -54 -48
-98 -51 -98 -31 0 -362 135 -383 156 -12 12 204 181 337 263 45 28 82 48 82
44 0 -5 4 -3 8 3 6 9 155 84 167 84 2 0 16 5 32 12 48 19 148 56 156 57 4 1 7
-2 7 -7z m1270 -15 c14 -6 30 -11 36 -12 6 -2 27 -9 45 -17 19 -8 59 -26 89
-39 30 -13 58 -28 62 -34 4 -5 8 -7 8 -3 1 34 463 -286 478 -330 3 -11 -133
-74 -268 -123 -116 -43 -130 -45 -130 -25 0 7 -22 58 -49 113 -76 155 -216
353 -318 449 -18 18 -33 35 -33 38 0 7 42 -2 80 -17z m-2101 -597 c89 -45 326
-140 348 -140 19 0 28 -27 14 -44 -7 -8 -11 -18 -10 -22 1 -5 -1 -16 -4 -24
-13 -30 -55 -188 -78 -286 l-22 -101 -359 0 c-214 0 -358 4 -358 10 0 36 138
304 217 421 60 88 161 223 170 225 1 1 38 -17 82 -39z m3015 -50 c72 -91 126
-168 126 -180 0 -6 4 -10 8 -10 17 0 182 -340 182 -375 0 -7 -712 0 -716 7 -3
5 -14 48 -25 96 -21 98 -48 197 -78 291 -12 35 -19 66 -17 69 3 2 44 18 93 36
111 40 136 51 252 107 110 53 99 56 175 -41z m-2334 -176 c14 -3 41 -9 60 -14
35 -8 107 -20 165 -25 17 -2 44 -6 60 -9 51 -9 307 -29 368 -28 15 1 17 -13
17 -157 l0 -158 -470 0 c-524 0 -480 -6 -459 72 6 22 10 48 10 58 0 9 5 17 11
17 6 0 9 3 6 6 -7 6 10 72 47 187 l28 84 66 -14 c36 -8 77 -17 91 -19z m1660
17 c0 -11 4 -22 9 -25 4 -3 12 -20 16 -38 9 -37 12 -47 15 -50 1 -2 3 -10 5
-18 2 -8 17 -66 33 -127 17 -62 28 -113 26 -113 -3 0 0 -8 5 -18 10 -18 -7
-19 -465 -19 l-474 0 0 158 c0 144 2 158 18 157 23 0 218 11 267 16 88 8 219
27 295 41 19 4 44 8 55 10 11 1 20 3 20 5 0 1 14 3 30 6 17 2 53 10 80 18 66
19 65 19 65 -3z m1252 -591 l27 -27 0 -483 c1 -417 -1 -487 -15 -515 -8 -18
-24 -35 -34 -38 -10 -2 -976 -5 -2146 -5 l-2128 0 -28 28 -28 28 1 474 c0 260
2 487 5 505 12 65 -149 60 2192 60 l2126 0 28 -27z m-3342 -1228 c0 -16 37
-175 57 -247 14 -49 27 -97 29 -105 2 -8 10 -34 19 -58 16 -45 13 -62 -9 -62
-21 0 -241 -89 -335 -135 -67 -33 -89 -40 -100 -31 -27 21 -120 144 -186 244
-64 98 -185 336 -185 364 0 8 -5 19 -10 24 -8 8 101 11 355 10 201 0 365 -2
365 -4z m1100 -154 l0 -159 -32 1 c-54 2 -239 -12 -348 -25 -66 -8 -117 -15
-140 -20 -14 -3 -38 -7 -55 -9 -33 -5 -210 -43 -235 -51 -12 -4 -21 9 -35 52
-10 32 -19 60 -20 63 -1 3 -11 37 -23 75 -11 39 -23 81 -26 95 -3 14 -10 42
-15 63 -5 20 -7 37 -5 37 3 0 0 8 -5 18 -9 18 10 18 465 19 l474 0 0 -159z
m1095 120 c-8 -52 -40 -173 -77 -291 -24 -78 -33 -97 -47 -93 -21 7 -111 27
-136 32 -11 1 -31 5 -45 9 -14 3 -41 8 -60 11 -19 3 -43 8 -53 10 -10 3 -37 7
-60 10 -23 2 -58 6 -77 9 -63 9 -260 25 -342 27 l-38 0 0 158 0 157 470 0 470
-1 -5 -38z m885 30 c0 -14 -33 -88 -87 -199 -73 -147 -186 -318 -276 -416
l-29 -31 -77 38 c-86 43 -156 73 -283 120 -49 18 -88 34 -88 36 0 2 13 43 29
91 16 49 44 151 62 229 l33 140 358 0 c197 0 358 -3 358 -8z m-1982 -886 c3
-481 13 -436 -95 -403 -53 16 -132 55 -207 104 -104 66 -271 258 -354 407 -74
132 -113 220 -98 220 2 0 57 11 122 24 66 14 137 27 159 30 22 4 54 8 70 11
54 8 110 14 201 21 49 3 90 7 91 8 1 1 26 1 55 1 l53 0 3 -423z m372 413 c58
-4 114 -9 125 -11 11 -2 43 -6 70 -9 28 -3 75 -10 105 -16 110 -22 245 -52
252 -55 14 -9 -150 -301 -212 -378 -161 -201 -314 -313 -493 -359 l-57 -15 0
427 0 427 53 -1 c28 -1 99 -6 157 -10z m-1280 -147 c0 -29 102 -220 168 -318
74 -110 116 -162 195 -244 26 -27 47 -50 47 -52 0 -1 -37 12 -82 28 -46 17
-89 30 -95 31 -7 0 -13 4 -13 9 0 4 -7 8 -15 8 -18 0 -189 82 -193 93 -2 4 -9
7 -16 7 -31 0 -396 266 -396 289 0 6 79 50 100 56 3 1 19 8 35 15 53 22 240
89 253 89 6 1 12 -5 12 -11z m2052 -4 c24 -9 52 -20 63 -24 11 -4 40 -16 64
-25 74 -27 201 -87 201 -95 0 -19 -254 -210 -360 -272 -92 -53 -250 -130 -275
-133 -5 -1 -17 -5 -25 -8 -55 -22 -127 -47 -138 -47 -8 0 5 18 27 39 61 59
147 165 211 262 67 102 162 283 153 293 -3 3 -1 6 6 6 7 0 9 5 6 10 -9 15 19
12 67 -6z"/>
<path d="M977 2879 c-19 -11 -49 -63 -41 -71 2 -3 7 -16 9 -29 3 -13 14 -62
26 -109 11 -47 22 -92 24 -100 2 -8 8 -30 14 -47 5 -18 8 -33 6 -33 -3 0 0
-11 5 -25 5 -14 12 -36 14 -48 4 -20 32 -136 57 -229 18 -70 81 -100 127 -60
16 14 77 125 106 192 4 8 24 48 45 88 l38 73 83 -167 c45 -92 91 -175 101
-185 23 -23 67 -25 95 -5 11 8 28 40 37 73 15 53 103 401 113 448 4 21 6 29
28 116 18 74 2 115 -50 125 -62 11 -94 -30 -118 -152 -9 -44 -78 -309 -81
-313 -2 -2 -33 55 -68 127 -79 160 -86 170 -125 178 -52 11 -75 -14 -147 -158
-37 -73 -71 -137 -75 -141 -6 -7 -31 81 -55 189 -2 11 -13 53 -24 93 -11 41
-18 78 -15 82 2 4 0 10 -6 14 -5 3 -10 14 -10 24 0 44 -70 75 -113 50z"/>
<path d="M2055 2865 c-30 -31 -31 -44 -4 -143 11 -42 23 -86 25 -97 2 -11 30
-123 62 -249 51 -201 61 -232 84 -249 20 -15 35 -18 61 -13 34 6 38 13 123
181 48 96 90 175 94 175 3 0 43 -76 90 -170 68 -137 89 -171 112 -181 50 -21
101 10 112 67 2 11 37 147 76 304 90 354 88 339 55 374 -23 24 -31 28 -63 22
-50 -8 -62 -26 -88 -136 -2 -8 -13 -53 -25 -100 -12 -47 -22 -92 -23 -100 -1
-9 -5 -20 -8 -25 -7 -12 -22 -87 -20 -97 1 -5 -1 -8 -5 -8 -5 0 -39 64 -78
142 -78 157 -96 176 -153 162 -35 -9 -40 -15 -107 -151 -38 -78 -76 -142 -83
-142 -6 -1 -11 2 -11 7 1 4 0 9 -1 12 -2 6 -6 23 -13 60 -3 14 -10 39 -17 55
-6 17 -11 32 -11 35 1 3 -2 21 -6 40 -9 46 -10 50 -13 53 -2 2 -5 15 -13 52
-18 78 -31 112 -50 127 -32 25 -72 22 -102 -7z"/>
<path d="M3152 2870 c-12 -12 -23 -25 -23 -30 -1 -6 -2 -16 -3 -22 -1 -7 2
-26 7 -43 4 -16 10 -39 12 -50 6 -30 13 -60 15 -60 1 0 3 -11 6 -25 4 -25 18
-80 35 -136 5 -17 9 -39 9 -51 0 -11 3 -23 7 -27 4 -4 9 -19 10 -34 2 -15 8
-38 13 -52 5 -14 17 -60 26 -103 21 -91 47 -127 94 -127 45 0 65 27 150 204
41 86 78 156 82 156 3 0 43 -73 88 -162 82 -164 106 -198 141 -198 50 0 85 38
93 101 2 13 6 31 9 39 6 15 93 360 103 410 3 14 11 48 18 75 19 70 18 68 17
88 -2 27 -47 67 -75 67 -14 0 -36 -10 -50 -22 -24 -22 -40 -77 -112 -378 -19
-83 -16 -85 -91 65 -82 163 -97 180 -149 172 -45 -7 -47 -11 -130 -177 -59
-120 -68 -132 -75 -110 -4 14 -29 111 -55 215 -52 205 -67 235 -122 235 -15 0
-38 -9 -50 -20z"/>
</g>
</svg>
